<svg width="23" height="23" viewBox="0 0 23 23" fill="none" xmlns="http://www.w3.org/2000/svg">
<g clip-path="url(#clip0_3_281)">
<path d="M20.8064 10.4788V11.3489C20.8052 13.3883 20.1449 15.3727 18.9238 17.0062C17.7026 18.6396 15.9862 19.8346 14.0305 20.4128C12.0748 20.9911 9.98455 20.9216 8.07151 20.2148C6.15848 19.5081 4.52516 18.2019 3.41515 16.491C2.30514 14.7801 1.77792 12.7562 1.9121 10.7213C2.04629 8.68625 2.8347 6.74915 4.15975 5.19884C5.4848 3.64854 7.2755 2.56809 9.26477 2.11864C11.254 1.66919 13.3353 1.87482 15.1982 2.70486M20.8064 3.783L11.349 13.2499L8.51179 10.4126" stroke="#F3DAFF" stroke-width="2.83722" stroke-linecap="round" stroke-linejoin="round"/>
</g>
<defs>
<clipPath id="clip0_3_281">
<rect width="22.6978" height="22.6978" fill="white"/>
</clipPath>
</defs>
</svg>
